<svg xmlns="http://www.w3.org/2000/svg" version="1.1" xmlns:xlink="http://www.w3.org/1999/xlink" xmlns:svgjs="http://svgjs.dev/svgjs" width="2000" height="595" viewBox="0 0 2000 595"><g transform="matrix(1,0,0,1,-1.1388540130479896,-1.1407389543358022)"><svg viewBox="0 0 326 97" data-background-color="#ececea" preserveAspectRatio="xMidYMid meet" height="595" width="2000" xmlns="http://www.w3.org/2000/svg" xmlns:xlink="http://www.w3.org/1999/xlink"><g id="tight-bounds" transform="matrix(1,0,0,1,0.18563320412681605,0.18596920768163727)"><svg viewBox="0 0 325.62873359174637 96.64091565298838" height="96.64091565298838" width="325.62873359174637"><g><svg viewBox="0 0 325.62873359174637 96.64091565298838" height="96.64091565298838" width="325.62873359174637"><g><svg viewBox="0 0 325.62873359174637 96.64091565298838" height="96.64091565298838" width="325.62873359174637"><g id="textblocktransform"><svg viewBox="0 0 325.62873359174637 96.64091565298838" height="96.64091565298838" width="325.62873359174637" id="textblock"><g><svg viewBox="0 0 325.62873359174637 64.23017578125" height="64.23017578125" width="325.62873359174637"><g><svg><g></g><g></g></svg></g><g><svg><g></g><g><svg></svg></g></svg></g><g id="text-0"><svg viewBox="0 0 325.62873359174637 64.23017578125" height="64.23017578125" width="325.62873359174637"><g transform="matrix(1,0,0,1,0,12.266455078124999)"><svg width="134.12957071604833" viewBox="-0.06999999999999984 -43.7 158.76999999999998 47.7" height="39.697265625" data-palette-color="#009b7d"><path d="M6.71 0L6.71 0Q6.81-0.85 7.19-1.61 7.57-2.37 8.14-2.94 8.72-3.52 9.45-3.85 10.18-4.17 10.99-4.17L10.99-4.17 19.95-4.17 19.95-10.11 7.15-16.48Q5.69-17.21 4.81-18.7 3.93-20.19 3.93-22.41L3.93-22.41 3.93-30.81Q3.93-32.1 4.28-33.24 4.64-34.38 5.26-35.22 5.88-36.06 6.71-36.54 7.54-37.01 8.5-37.01L8.5-37.01 22-37.01Q22.95-37.01 23.78-36.54 24.61-36.06 25.23-35.22 25.85-34.38 26.22-33.24 26.59-32.1 26.59-30.81L26.59-30.81 26.59-23.58 20.75-23.58 20.75-32.84 9.77-32.84 9.77-21.26 23-14.5Q23.63-14.18 24.15-13.62 24.66-13.06 25.02-12.32 25.39-11.57 25.59-10.67 25.78-9.77 25.78-8.79L25.78-8.79 25.78-6.15Q25.78-4.88 25.42-3.76 25.05-2.64 24.43-1.81 23.8-0.98 22.97-0.49 22.14 0 21.19 0L21.19 0 6.71 0ZM35.91-6.15L35.91-19.36Q35.91-20.65 36.28-21.79 36.64-22.92 37.27-23.77 37.89-24.61 38.72-25.09 39.55-25.56 40.5-25.56L40.5-25.56 60.96-25.56Q60.86-24.71 60.48-23.94 60.1-23.17 59.53-22.61 58.96-22.05 58.23-21.72 57.49-21.39 56.69-21.39L56.69-21.39 55.15-21.39Q55.61-21.04 56.06-20.51 56.52-19.97 56.87-19.26 57.22-18.55 57.43-17.71 57.64-16.87 57.64-15.89L57.64-15.89 57.64-6.15Q57.64-4.88 57.27-3.76 56.91-2.64 56.27-1.81 55.64-0.98 54.79-0.49 53.95 0 53 0L53 0 40.5 0Q39.55 0 38.72-0.49 37.89-0.98 37.27-1.81 36.64-2.64 36.28-3.76 35.91-4.88 35.91-6.15L35.91-6.15ZM41.75-4.17L51.8-4.17 51.8-21.39 41.75-21.39 41.75-4.17ZM64.28 0L74.53-27.03 80.39-27.03Q80.17-26.49 80.06-25.96 79.95-25.44 79.9-25.1L79.9-25.1Q79.83-24.19 80.2-23.46 80.56-22.73 81.18-22.06 81.81-21.39 82.62-20.73 83.44-20.07 84.3-19.34L84.3-19.34Q85.27-18.55 86.27-17.54 87.28-16.53 88.08-15.32 88.89-14.11 89.39-12.76 89.89-11.4 89.84-9.94L89.84-9.94Q89.79-8.91 89.4-7.97 89.01-7.03 88.37-6.29 87.74-5.54 86.9-5 86.05-4.47 85.13-4.22L85.13-4.22 94.21-4.22Q93.87-3.27 93.39-2.5 92.91-1.73 92.32-1.17 91.72-0.61 91.01-0.31 90.3 0 89.55 0L89.55 0 82.86 0Q81.73 0 80.99-0.35 80.24-0.71 79.82-1.29 79.39-1.88 79.23-2.65 79.07-3.42 79.15-4.25L79.15-4.25Q79.93-4.35 80.68-4.66 81.44-4.98 82.04-5.58 82.64-6.18 83.04-7.08 83.44-7.98 83.54-9.25L83.54-9.25Q83.64-10.25 83.34-11.13 83.05-12.01 82.56-12.79 82.08-13.57 81.44-14.28 80.81-14.99 80.2-15.65L80.2-15.65Q79.56-16.48 78.93-17.65 78.29-18.82 78.02-20.51L78.02-20.51 70.31 0 64.28 0ZM100.51-31.47L100.51-31.47Q99.65-31.47 98.91-31.79 98.16-32.1 97.6-32.67 97.04-33.23 96.72-33.97 96.4-34.72 96.4-35.57L96.4-35.57Q96.4-36.43 96.72-37.17 97.04-37.92 97.6-38.48 98.16-39.04 98.91-39.37 99.65-39.7 100.51-39.7L100.51-39.7Q101.36-39.7 102.1-39.37 102.85-39.04 103.41-38.48 103.97-37.92 104.3-37.17 104.63-36.43 104.63-35.57L104.63-35.57Q104.63-34.72 104.3-33.97 103.97-33.23 103.41-32.67 102.85-32.1 102.09-31.79 101.34-31.47 100.51-31.47ZM97.65-6.2L97.65-25.56 103.48-25.56 103.48-4.17 108.71-4.17Q108.64-3.32 108.26-2.55 107.88-1.78 107.3-1.22 106.73-0.66 106-0.33 105.27 0 104.46 0L104.46 0 102.31 0Q101.36 0 100.51-0.49 99.65-0.98 99.02-1.82 98.38-2.66 98.01-3.78 97.65-4.91 97.65-6.2L97.65-6.2ZM112.88-6.13L112.88-18.68Q112.88-20.14 113.28-21.41 113.69-22.68 114.39-23.61 115.1-24.54 116.07-25.06 117.03-25.59 118.15-25.59L118.15-25.59 134.61-25.59 134.61-4.17 139.91-4.17Q139.81-3.32 139.43-2.55 139.05-1.78 138.48-1.22 137.91-0.66 137.17-0.33 136.44 0 135.63 0L135.63 0 133.02 0Q131.83 0 130.75-0.82 129.68-1.64 128.97-3.03L128.97-3.03Q128.26-1.64 127.19-0.82 126.11 0 124.92 0L124.92 0 117.52 0Q116.57 0 115.71-0.49 114.86-0.98 114.24-1.81 113.61-2.64 113.25-3.75 112.88-4.86 112.88-6.13L112.88-6.13ZM118.69-4.17L128.8-4.17 128.8-21.39 118.69-21.39 118.69-4.17ZM143.66-6.2L143.66-38.84 149.5-38.84 149.5-4.17 154.7-4.17Q154.55-3.2 154.15-2.42 153.75-1.64 153.17-1.1 152.6-0.56 151.88-0.28 151.16 0 150.38 0L150.38 0 148.33 0Q147.38 0 146.52-0.49 145.67-0.98 145.03-1.82 144.4-2.66 144.03-3.78 143.66-4.91 143.66-6.2L143.66-6.2Z" opacity="1" transform="matrix(1,0,0,1,0,0)" fill="#009b7d" class="undefined-tk-0"></path></svg></g><g><svg xmlns="http://www.w3.org/2000/svg" viewBox="4 4 55.586 56" x="149.29392618479832" y="0" height="64.23017578125" width="63.75533126743861" class="icon-dxe-0" data-fill-palette-color="accent" id="dxe-0"><g data-name="Get On Top" fill="#ffbf5d" data-fill-palette-color="accent"><path d="M17 10H20A4.9 4.9 0 0 1 22.649 10.769 2 2 0 0 1 22.949 10.969L22.995 11.001V7A1 1 0 0 0 21.995 6H18A1 1 0 0 0 17 7Z" fill="#ffbf5d" data-fill-palette-color="accent"></path><path d="M25 7V25A3 3 0 0 0 31 25V5A1 1 0 0 0 30 4H26A1 1 0 0 0 25 5Z" fill="#ffbf5d" data-fill-palette-color="accent"></path><path d="M17 60H45V48H17ZM41 56H43V58H41ZM37 56H39V58H37Z" fill="#ffbf5d" data-fill-palette-color="accent"></path><polygon points="57.274 18.312 59.586 16 57.274 13.688 56.118 16 57.274 18.312" fill="#ffbf5d" data-fill-palette-color="accent"></polygon><path d="M50 39V21H48.582L48.575 21.013C48.524 21.132 48.457 21.24 48.397 21.353S48.28 21.582 48.212 21.69 48.058 21.906 47.978 22.012 47.83 22.212 47.748 22.302A7 7 0 0 1 47.194 22.838 5 5 0 0 1 46.558 23.285C46.458 23.344 46.358 23.401 46.258 23.452A5 5 0 0 1 45.845 23.634C45.745 23.673 45.652 23.715 45.551 23.747A5 5 0 0 1 45.051 23.875C44.964 23.894 44.88 23.919 44.792 23.933A4.8 4.8 0 0 1 43.055 23.908C42.955 23.889 42.855 23.851 42.761 23.826A5 5 0 0 1 42.161 23.643C42.047 23.598 41.942 23.537 41.832 23.484A5 5 0 0 1 41.327 23.215C41.217 23.145 41.115 23.061 41.01 22.982S40.787 22.835 40.686 22.745C40.671 22.784 40.649 22.82 40.633 22.858 40.599 22.943 40.558 23.023 40.519 23.105A5 5 0 0 1 40.219 23.654C40.167 23.735 40.119 23.815 40.061 23.893A5 5 0 0 1 39.631 24.414C39.585 24.463 39.545 24.514 39.497 24.562A5 5 0 0 1 38.826 25.117C38.771 25.154 38.712 25.183 38.656 25.217A5 5 0 0 1 38.056 25.544 6 6 0 0 1 37.79 25.653 5 5 0 0 1 37.181 25.842C37.091 25.864 37.004 25.889 36.913 25.906A5 5 0 0 1 36 26 5 5 0 0 1 35.1 25.912C35.007 25.895 34.918 25.866 34.826 25.844A5 5 0 0 1 34.233 25.665C34.133 25.627 34.033 25.583 33.933 25.538A5 5 0 0 1 33.409 25.26C33.318 25.204 33.226 25.15 33.138 25.088 33.092 25.057 33.043 25.033 32.998 25A5 5 0 1 1 22.998 25C22.959 25.03 22.914 25.051 22.873 25.079 22.793 25.136 22.708 25.186 22.624 25.238A5 5 0 0 1 22.094 25.526C21.994 25.571 21.902 25.613 21.804 25.652A5 5 0 0 1 21.204 25.838C21.134 25.856 21.069 25.886 20.998 25.901V27.753A10.94 10.94 0 0 1 28 38H26A8.95 8.95 0 0 0 19.7 29.414 1 1 0 0 1 19 28.46V21A1 1 0 0 1 20 20H22A1 1 0 0 0 22.395 19.917 2 2 0 0 1 22.562 19.825C22.583 19.809 22.62 19.779 22.642 19.764L22.758 19.646 22.821 19.569 22.837 19.543A1.03 1.03 0 0 0 23 19V15A2 2 0 0 0 22.972 14.626 1 1 0 0 1 22.955 14.518 1.4 1.4 0 0 0 22.923 14.343 2.2 2.2 0 0 0 22.771 13.866 2 2 0 0 0 22.665 13.635L22.626 13.557 22.605 13.518A0.6 0.6 0 0 0 22.544 13.418C22.485 13.327 22.465 13.291 22.444 13.261A2 2 0 0 0 22.257 13.027 1 1 0 0 1 22.165 12.927 1.4 1.4 0 0 0 22.024 12.791 2 2 0 0 0 21.796 12.61C21.727 12.559 21.688 12.528 21.644 12.502L21.621 12.488A3 3 0 0 0 20 12H14A3.01 3.01 0 0 0 11 15V36A5.006 5.006 0 0 0 16 41 1 1 0 0 1 17 42V46H43A7.01 7.01 0 0 0 50 39" fill="#ffbf5d" data-fill-palette-color="accent"></path><path d="M33 21A3 3 0 0 0 39 21V5A1 1 0 0 0 38 4H34A1 1 0 0 0 33 5Z" fill="#ffbf5d" data-fill-palette-color="accent"></path><path d="M21 22V23.829A3.01 3.01 0 0 0 22.871 21.87 3 3 0 0 1 22 22Z" fill="#ffbf5d" data-fill-palette-color="accent"></path><path d="M4 15H9A5 5 0 0 1 9.1 14C9.1 13.987 9.1 13.973 9.107 13.959A5 5 0 0 1 9.407 13.038C9.412 13.025 9.414 13.01 9.42 12.997H5A1 1 0 0 0 4 13.997Z" fill="#ffbf5d" data-fill-palette-color="accent"></path><polygon points="49 13 49 15 54.382 15 55.382 13 49 13" fill="#ffbf5d" data-fill-palette-color="accent"></polygon><path d="M5 19H9V17H4V18A1 1 0 0 0 5 19" fill="#ffbf5d" data-fill-palette-color="accent"></path><path d="M50 11A2.98 2.98 0 0 0 48.976 8.76C48.982 8.841 49 8.918 49 9V11Z" fill="#ffbf5d" data-fill-palette-color="accent"></path><polygon points="54.382 17 49 17 49 19 55.382 19 54.382 17" fill="#ffbf5d" data-fill-palette-color="accent"></polygon><path d="M41 19A2.6 2.6 0 0 0 41.093 19.729 3.07 3.07 0 0 0 41.884 21.129 3 3 0 0 0 46.9 19.753C46.9 19.74 46.9 19.728 46.908 19.715A2.7 2.7 0 0 0 47 19V9A1 1 0 0 0 46 8H42A1 1 0 0 0 41 9Z" fill="#ffbf5d" data-fill-palette-color="accent"></path></g></svg></g><g transform="matrix(1,0,0,1,228.21361292098692,12.266455078124999)"><svg width="97.41512067075944" viewBox="-4.39 -43.7 115.58 47.7" height="39.697265625" data-palette-color="#009b7d"><path d="M12.96 0L4.15-32.84-0.39-32.84Q-0.29-33.69 0.09-34.45 0.46-35.21 1.04-35.78 1.61-36.35 2.34-36.68 3.08-37.01 3.88-37.01L3.88-37.01 9.08-37.01 16.89-3.71 24.49-37.01 30.4-37.01 20.83 0 12.96 0ZM39.94-31.47L39.94-31.47Q39.08-31.47 38.34-31.79 37.6-32.1 37.03-32.67 36.47-33.23 36.15-33.97 35.84-34.72 35.84-35.57L35.84-35.57Q35.84-36.43 36.15-37.17 36.47-37.92 37.03-38.48 37.6-39.04 38.34-39.37 39.08-39.7 39.94-39.7L39.94-39.7Q40.79-39.7 41.54-39.37 42.28-39.04 42.84-38.48 43.41-37.92 43.74-37.17 44.06-36.43 44.06-35.57L44.06-35.57Q44.06-34.72 43.74-33.97 43.41-33.23 42.84-32.67 42.28-32.1 41.53-31.79 40.77-31.47 39.94-31.47ZM37.08-6.2L37.08-25.56 42.92-25.56 42.92-4.17 48.14-4.17Q48.07-3.32 47.69-2.55 47.31-1.78 46.74-1.22 46.16-0.66 45.43-0.33 44.7 0 43.89 0L43.89 0 41.75 0Q40.79 0 39.94-0.49 39.08-0.98 38.45-1.82 37.81-2.66 37.45-3.78 37.08-4.91 37.08-6.2L37.08-6.2ZM52.31 0L52.31-38.84 58.12-38.84 58.12-22.73Q58.81-24.05 59.83-24.8 60.86-25.56 62.06-25.56L62.06-25.56 69.43-25.56Q70.38-25.56 71.21-25.07 72.04-24.58 72.68-23.74 73.31-22.9 73.68-21.78 74.04-20.65 74.04-19.36L74.04-19.36 74.04-4.17 79.19-4.17Q79.1-3.32 78.72-2.55 78.34-1.78 77.77-1.22 77.19-0.66 76.46-0.33 75.73 0 74.92 0L74.92 0 62.06 0Q60.86 0 59.85-0.74 58.83-1.49 58.12-2.76L58.12-2.76 58.12 0 52.31 0ZM58.12-4.17L68.23-4.17 68.23-21.39 58.12-21.39 58.12-4.17ZM83.44-6.2L83.44-19.36Q83.44-20.65 83.81-21.78 84.17-22.9 84.79-23.74 85.42-24.58 86.27-25.07 87.13-25.56 88.08-25.56L88.08-25.56 101.04-25.56Q101.99-25.56 102.84-25.07 103.68-24.58 104.31-23.74 104.95-22.9 105.31-21.78 105.68-20.65 105.68-19.36L105.68-19.36 105.68-11.23 89.27-11.23 89.27-4.17 107.19-4.17Q107.1-3.32 106.72-2.55 106.34-1.78 105.77-1.22 105.19-0.66 104.46-0.33 103.73 0 102.92 0L102.92 0 88.08 0Q87.13 0 86.27-0.49 85.42-0.98 84.79-1.82 84.17-2.66 83.81-3.78 83.44-4.91 83.44-6.2L83.44-6.2ZM89.27-14.65L99.85-14.65 99.85-21.39 89.27-21.39 89.27-14.65Z" opacity="1" transform="matrix(1,0,0,1,0,0)" fill="#009b7d" class="undefined-tk-1"></path></svg></g></svg></g></svg></g><g transform="matrix(1,0,0,1,3.5,73.6017474609375)"><svg viewBox="0 0 318.62873359174637 23.03916819205089" height="23.03916819205089" width="318.62873359174637"><g transform="matrix(1,0,0,1,0,0)"><svg width="318.62873359174637" viewBox="-4.05 -37.4 700.01 51.55" height="23.03916819205089" data-palette-color="#0099ff"><path d="M-0.05-30.65L21.35-30.65 21.35-28.1 13.25-28.1 13.25 0 8.15 0 8.15-28.1-0.05-28.1-0.05-30.65ZM37.75-24.6Q41.7-24.6 43.57-22.6 45.45-20.6 45.45-16.95L45.45-16.95 45.45 0 40.4 0 40.4-16.55Q40.4-19.2 39.45-20.5 38.5-21.8 36.45-21.8L36.45-21.8Q33.35-21.8 30.45-19.5L30.45-19.5 30.45 0 25.4 0 25.4-31.7 30.45-32.35 30.45-22.1Q32.05-23.25 33.95-23.93 35.85-24.6 37.75-24.6L37.75-24.6ZM55.65-27.15Q54.34-27.15 53.45-28.08 52.55-29 52.55-30.25L52.55-30.25Q52.55-31.55 53.45-32.48 54.34-33.4 55.65-33.4L55.65-33.4Q56.95-33.4 57.87-32.48 58.8-31.55 58.8-30.25L58.8-30.25Q58.8-29 57.84-28.08 56.9-27.15 55.65-27.15L55.65-27.15ZM58.05-24L58.05 0 53.09 0 53.09-24 58.05-24ZM78.64-24.6Q86.34-24.6 86.34-16.95L86.34-16.95 86.34 0 81.29 0 81.29-16.55Q81.29-19.25 80.34-20.53 79.39-21.8 77.34-21.8L77.34-21.8Q74.29-21.8 71.34-19.5L71.34-19.5 71.34 0 66.29 0 66.29-24 68.49-24 70.49-21.5Q72.29-22.9 74.47-23.75 76.64-24.6 78.64-24.6L78.64-24.6ZM113.59-24L113.59-21.9 110.09-21.9Q112.09-19.55 112.09-15.8L112.09-15.8Q112.09-12.1 110.06-9.5 108.04-6.9 103.14-6.9L103.14-6.9Q99.79-6.9 97.59-8L97.59-8 96.24-6.7Q95.04-5.7 95.04-4.35L95.04-4.35Q95.04-3.6 95.61-2.98 96.19-2.35 97.24-2.35L97.24-2.35 106.59-2.35Q109.79-2.35 111.64-0.7 113.49 0.95 113.49 3.45L113.49 3.45Q113.49 7.25 110.36 8.7 107.24 10.15 102.14 10.15L102.14 10.15Q97.24 10.15 94.52 8.8 91.79 7.45 91.79 4.2L91.79 4.2Q91.79 2.9 92.66 1.65 93.54 0.4 94.94-0.3L94.94-0.3Q93.64-0.75 92.86-1.73 92.09-2.7 92.09-3.95L92.09-3.95Q92.09-5.05 92.49-6.03 92.89-7 93.94-8L93.94-8 95.49-9.5Q93.29-11.7 93.29-15.8L93.29-15.8Q93.29-19.5 95.41-22.05 97.54-24.6 102.69-24.6L102.69-24.6Q105.14-24.6 106.79-24L106.79-24 113.59-24ZM102.69-9.35Q105.19-9.35 106.22-11 107.24-12.65 107.24-15.8L107.24-15.8Q107.24-18.9 106.22-20.53 105.19-22.15 102.69-22.15L102.69-22.15Q100.19-22.15 99.19-20.53 98.19-18.9 98.19-15.8L98.19-15.8Q98.19-12.65 99.19-11 100.19-9.35 102.69-9.35L102.69-9.35ZM98.04 0Q97.19 0.7 96.66 1.78 96.14 2.85 96.14 4.05L96.14 4.05Q96.14 6 97.66 6.83 99.19 7.65 102.14 7.65L102.14 7.65Q105.94 7.65 107.56 6.73 109.19 5.8 109.19 3.45L109.19 3.45Q109.19 1.8 107.99 0.9 106.79 0 104.99 0L104.99 0 98.04 0ZM129.29-13.8Q132.99-12.8 134.66-11.25 136.34-9.7 136.34-6.75L136.34-6.75Q136.34-3.35 133.96-1.38 131.59 0.6 127.24 0.6L127.24 0.6Q122.54 0.6 120.24-1.33 117.94-3.25 117.44-6.9L117.44-6.9 121.59-7.4Q121.84-4.8 123.24-3.35 124.64-1.9 127.24-1.9L127.24-1.9Q129.34-1.9 130.69-3.05 132.04-4.2 132.04-5.7L132.04-5.7Q132.04-7.2 130.84-8.1 129.64-9 126.89-9.7L126.89-9.7 124.49-10.4Q121.29-11.25 119.59-12.9 117.89-14.55 117.89-17.55L117.89-17.55Q117.89-20.8 120.29-22.7 122.69-24.6 126.94-24.6L126.94-24.6Q131.39-24.6 133.54-22.73 135.69-20.85 136.14-17.25L136.14-17.25 131.99-16.9Q131.74-19.35 130.46-20.73 129.19-22.1 126.94-22.1L126.94-22.1Q124.59-22.1 123.39-21.15 122.19-20.2 122.19-18.65L122.19-18.65Q122.19-16.95 123.36-16.05 124.54-15.15 127.09-14.45L127.09-14.45 129.29-13.8ZM173.68-24L173.68-21.9 170.18-21.9Q172.18-19.55 172.18-15.8L172.18-15.8Q172.18-12.1 170.16-9.5 168.13-6.9 163.23-6.9L163.23-6.9Q159.88-6.9 157.68-8L157.68-8 156.33-6.7Q155.13-5.7 155.13-4.35L155.13-4.35Q155.13-3.6 155.71-2.98 156.28-2.35 157.33-2.35L157.33-2.35 166.68-2.35Q169.88-2.35 171.73-0.7 173.58 0.95 173.58 3.45L173.58 3.45Q173.58 7.25 170.46 8.7 167.33 10.15 162.23 10.15L162.23 10.15Q157.33 10.15 154.61 8.8 151.88 7.45 151.88 4.2L151.88 4.2Q151.88 2.9 152.76 1.65 153.63 0.4 155.03-0.3L155.03-0.3Q153.73-0.75 152.96-1.73 152.18-2.7 152.18-3.95L152.18-3.95Q152.18-5.05 152.58-6.03 152.98-7 154.03-8L154.03-8 155.58-9.5Q153.38-11.7 153.38-15.8L153.38-15.8Q153.38-19.5 155.51-22.05 157.63-24.6 162.78-24.6L162.78-24.6Q165.23-24.6 166.88-24L166.88-24 173.68-24ZM162.78-9.35Q165.28-9.35 166.31-11 167.33-12.65 167.33-15.8L167.33-15.8Q167.33-18.9 166.31-20.53 165.28-22.15 162.78-22.15L162.78-22.15Q160.28-22.15 159.28-20.53 158.28-18.9 158.28-15.8L158.28-15.8Q158.28-12.65 159.28-11 160.28-9.35 162.78-9.35L162.78-9.35ZM158.13 0Q157.28 0.7 156.76 1.78 156.23 2.85 156.23 4.05L156.23 4.05Q156.23 6 157.76 6.83 159.28 7.65 162.23 7.65L162.23 7.65Q166.03 7.65 167.66 6.73 169.28 5.8 169.28 3.45L169.28 3.45Q169.28 1.8 168.08 0.9 166.88 0 165.08 0L165.08 0 158.13 0ZM188.68 0.6Q182.63 0.6 180.26-2.88 177.88-6.35 177.88-12L177.88-12Q177.88-17.7 180.26-21.15 182.63-24.6 188.68-24.6L188.68-24.6Q194.68-24.6 197.08-21.13 199.48-17.65 199.48-12L199.48-12Q199.48 0.6 188.68 0.6L188.68 0.6ZM188.68-1.9Q191.98-1.9 193.21-4.55 194.43-7.2 194.43-12L194.43-12Q194.43-16.85 193.23-19.48 192.03-22.1 188.68-22.1L188.68-22.1Q185.33-22.1 184.13-19.5 182.93-16.9 182.93-12L182.93-12Q182.93-7.15 184.13-4.53 185.33-1.9 188.68-1.9L188.68-1.9ZM228.38-24.6Q233.83-24.6 235.93-21.15 238.03-17.7 238.03-12L238.03-12Q238.03-6.3 235.93-2.85 233.83 0.6 228.38 0.6L228.38 0.6Q224.58 0.6 221.43-2.1L221.43-2.1 219.83 0 217.58 0 217.58-31.7 222.63-32.35 222.63-23.1Q225.48-24.6 228.38-24.6L228.38-24.6ZM227.18-2.25Q230.28-2.25 231.63-4.83 232.98-7.4 232.98-12L232.98-12Q232.98-16.85 231.6-19.48 230.23-22.1 227.13-22.1L227.13-22.1Q224.63-22.1 222.63-20.95L222.63-20.95 222.63-3.8Q224.53-2.25 227.18-2.25L227.18-2.25ZM263.17-11.7L247.67-11.7 247.67-11.6Q247.67-6.3 248.95-4.1 250.22-1.9 253.32-1.9L253.32-1.9Q258.42-1.9 258.67-7.15L258.67-7.15 262.82-6.95Q262.47-3.45 260.27-1.43 258.07 0.6 253.17 0.6L253.17 0.6Q247.52 0.6 245.07-2.53 242.62-5.65 242.62-12L242.62-12Q242.62-17.7 244.95-21.15 247.27-24.6 253.12-24.6L253.12-24.6Q258.77-24.6 260.97-21.18 263.17-17.75 263.17-12.2L263.17-12.2 263.17-11.7ZM253.02-22.1Q250.37-22.1 249.17-20.15 247.97-18.2 247.72-14.2L247.72-14.2 258.27-14.2Q258.12-18.1 256.95-20.1 255.77-22.1 253.02-22.1L253.02-22.1ZM280.12-3.15L280.77-0.85Q278.12 0.6 275.67 0.6L275.67 0.6Q273.17 0.6 271.94-0.33 270.72-1.25 270.42-2.55 270.12-3.85 270.12-5.75L270.12-5.75 270.12-21.45 266.22-21.45 266.22-24 270.12-24 270.12-27.9 275.22-29.8 275.22-24 280.32-24 280.32-21.45 275.22-21.45 275.22-5.15Q275.22-3.5 275.65-2.88 276.07-2.25 277.07-2.25L277.07-2.25Q278.47-2.25 280.12-3.15L280.12-3.15ZM295.27-3.15L295.92-0.85Q293.27 0.6 290.82 0.6L290.82 0.6Q288.32 0.6 287.09-0.33 285.87-1.25 285.57-2.55 285.27-3.85 285.27-5.75L285.27-5.75 285.27-21.45 281.37-21.45 281.37-24 285.27-24 285.27-27.9 290.37-29.8 290.37-24 295.47-24 295.47-21.45 290.37-21.45 290.37-5.15Q290.37-3.5 290.79-2.88 291.22-2.25 292.22-2.25L292.22-2.25Q293.62-2.25 295.27-3.15L295.27-3.15ZM318.56-11.7L303.06-11.7 303.06-11.6Q303.06-6.3 304.34-4.1 305.61-1.9 308.71-1.9L308.71-1.9Q313.81-1.9 314.06-7.15L314.06-7.15 318.21-6.95Q317.86-3.45 315.66-1.43 313.46 0.6 308.56 0.6L308.56 0.6Q302.91 0.6 300.46-2.53 298.01-5.65 298.01-12L298.01-12Q298.01-17.7 300.34-21.15 302.66-24.6 308.51-24.6L308.51-24.6Q314.16-24.6 316.36-21.18 318.56-17.75 318.56-12.2L318.56-12.2 318.56-11.7ZM308.41-22.1Q305.76-22.1 304.56-20.15 303.36-18.2 303.11-14.2L303.11-14.2 313.66-14.2Q313.51-18.1 312.34-20.1 311.16-22.1 308.41-22.1L308.41-22.1ZM329.51-19.45Q330.66-21.6 332.74-22.9 334.81-24.2 337.71-24.2L337.71-24.2 337.71-20.5Q330.01-20.5 330.01-14.5L330.01-14.5 329.96-14.5 329.96 0 324.91 0 324.91-24 327.11-24 329.51-19.45ZM378.11-24L381.11-24 374.86 0 369.31 0 365.46-17.05 361.16 0 355.56 0 350.26-24 355.36-24 359.46-3.9 364.31-24 367.26-24 367.21-23.9 367.36-24 369.01-24 373.21-3.8 378.11-24ZM388.21-27.15Q386.91-27.15 386-28.08 385.11-29 385.11-30.25L385.11-30.25Q385.11-31.55 386-32.48 386.91-33.4 388.21-33.4L388.21-33.4Q389.5-33.4 390.43-32.48 391.36-31.55 391.36-30.25L391.36-30.25Q391.36-29 390.41-28.08 389.46-27.15 388.21-27.15L388.21-27.15ZM390.61-24L390.61 0 385.66 0 385.66-24 390.61-24ZM409.45-3.15L410.1-0.85Q407.45 0.6 405 0.6L405 0.6Q402.5 0.6 401.28-0.33 400.05-1.25 399.75-2.55 399.45-3.85 399.45-5.75L399.45-5.75 399.45-21.45 395.55-21.45 395.55-24 399.45-24 399.45-27.9 404.55-29.8 404.55-24 409.65-24 409.65-21.45 404.55-21.45 404.55-5.15Q404.55-3.5 404.98-2.88 405.4-2.25 406.4-2.25L406.4-2.25Q407.8-2.25 409.45-3.15L409.45-3.15ZM426.35-24.6Q430.3-24.6 432.17-22.6 434.05-20.6 434.05-16.95L434.05-16.95 434.05 0 429 0 429-16.55Q429-19.2 428.05-20.5 427.1-21.8 425.05-21.8L425.05-21.8Q421.95-21.8 419.05-19.5L419.05-19.5 419.05 0 414 0 414-31.7 419.05-32.35 419.05-22.1Q420.65-23.25 422.55-23.93 424.45-24.6 426.35-24.6L426.35-24.6ZM463.19-13.8Q466.89-12.8 468.57-11.25 470.25-9.7 470.25-6.75L470.25-6.75Q470.25-3.35 467.87-1.38 465.5 0.6 461.14 0.6L461.14 0.6Q456.44 0.6 454.14-1.33 451.84-3.25 451.34-6.9L451.34-6.9 455.5-7.4Q455.75-4.8 457.14-3.35 458.54-1.9 461.14-1.9L461.14-1.9Q463.25-1.9 464.59-3.05 465.94-4.2 465.94-5.7L465.94-5.7Q465.94-7.2 464.75-8.1 463.54-9 460.79-9.7L460.79-9.7 458.39-10.4Q455.19-11.25 453.5-12.9 451.79-14.55 451.79-17.55L451.79-17.55Q451.79-20.8 454.19-22.7 456.59-24.6 460.84-24.6L460.84-24.6Q465.29-24.6 467.44-22.73 469.59-20.85 470.04-17.25L470.04-17.25 465.89-16.9Q465.64-19.35 464.37-20.73 463.09-22.1 460.84-22.1L460.84-22.1Q458.5-22.1 457.29-21.15 456.09-20.2 456.09-18.65L456.09-18.65Q456.09-16.95 457.27-16.05 458.44-15.15 461-14.45L461-14.45 463.19-13.8ZM485.29 0.6Q479.24 0.6 476.87-2.88 474.49-6.35 474.49-12L474.49-12Q474.49-17.7 476.87-21.15 479.24-24.6 485.29-24.6L485.29-24.6Q491.29-24.6 493.69-21.13 496.09-17.65 496.09-12L496.09-12Q496.09 0.6 485.29 0.6L485.29 0.6ZM485.29-1.9Q488.59-1.9 489.82-4.55 491.04-7.2 491.04-12L491.04-12Q491.04-16.85 489.84-19.48 488.64-22.1 485.29-22.1L485.29-22.1Q481.94-22.1 480.74-19.5 479.54-16.9 479.54-12L479.54-12Q479.54-7.15 480.74-4.53 481.94-1.9 485.29-1.9L485.29-1.9ZM512.14-13.8Q515.84-12.8 517.51-11.25 519.19-9.7 519.19-6.75L519.19-6.75Q519.19-3.35 516.81-1.38 514.44 0.6 510.09 0.6L510.09 0.6Q505.39 0.6 503.09-1.33 500.79-3.25 500.29-6.9L500.29-6.9 504.44-7.4Q504.69-4.8 506.09-3.35 507.49-1.9 510.09-1.9L510.09-1.9Q512.19-1.9 513.54-3.05 514.89-4.2 514.89-5.7L514.89-5.7Q514.89-7.2 513.69-8.1 512.49-9 509.74-9.7L509.74-9.7 507.34-10.4Q504.14-11.25 502.44-12.9 500.74-14.55 500.74-17.55L500.74-17.55Q500.74-20.8 503.14-22.7 505.54-24.6 509.79-24.6L509.79-24.6Q514.24-24.6 516.39-22.73 518.54-20.85 518.99-17.25L518.99-17.25 514.84-16.9Q514.59-19.35 513.31-20.73 512.04-22.1 509.79-22.1L509.79-22.1Q507.44-22.1 506.24-21.15 505.04-20.2 505.04-18.65L505.04-18.65Q505.04-16.95 506.21-16.05 507.39-15.15 509.94-14.45L509.94-14.45 512.14-13.8ZM527.74-27.15Q526.44-27.15 525.54-28.08 524.64-29 524.64-30.25L524.64-30.25Q524.64-31.55 525.54-32.48 526.44-33.4 527.74-33.4L527.74-33.4Q529.04-33.4 529.96-32.48 530.89-31.55 530.89-30.25L530.89-30.25Q530.89-29 529.94-28.08 528.99-27.15 527.74-27.15L527.74-27.15ZM530.14-24L530.14 0 525.19 0 525.19-24 530.14-24ZM543.23 0.6Q540.18 0.6 538.41-1.07 536.63-2.75 536.63-5.65L536.63-5.65Q536.63-8.75 538.86-10.53 541.08-12.3 545.63-13.1L545.63-13.1 551.18-14 551.18-16.45Q551.18-22.1 546.88-22.1L546.88-22.1Q544.33-22.1 543.18-20.65 542.03-19.2 541.88-16.2L541.88-16.2 537.68-16.65Q537.98-20.6 540.08-22.6 542.18-24.6 546.98-24.6L546.98-24.6Q551.63-24.6 553.93-22.53 556.23-20.45 556.23-16.25L556.23-16.25 556.23 0 553.03 0 551.48-3.5Q549.93-1.5 547.78-0.45 545.63 0.6 543.23 0.6L543.23 0.6ZM545.03-2.05Q546.73-2.05 548.41-3.05 550.08-4.05 551.18-5.4L551.18-5.4 551.18-11.95 546.28-11Q543.78-10.45 542.51-9.25 541.23-8.05 541.23-6L541.23-6Q541.23-4.2 542.26-3.13 543.28-2.05 545.03-2.05L545.03-2.05ZM568.98-32.35L568.98 0 563.93 0 563.93-31.7 568.98-32.35ZM604.53-24L607.43-24 599.08 0 593.53 0 585.33-24 590.38-24 597.38-2.55 604.53-24ZM614.47-27.15Q613.17-27.15 612.27-28.08 611.37-29 611.37-30.25L611.37-30.25Q611.37-31.55 612.27-32.48 613.17-33.4 614.47-33.4L614.47-33.4Q615.77-33.4 616.7-32.48 617.62-31.55 617.62-30.25L617.62-30.25Q617.62-29 616.67-28.08 615.72-27.15 614.47-27.15L614.47-27.15ZM616.87-24L616.87 0 611.92 0 611.92-24 616.87-24ZM635.92-24.6Q641.37-24.6 643.47-21.15 645.57-17.7 645.57-12L645.57-12Q645.57-6.3 643.47-2.85 641.37 0.6 635.92 0.6L635.92 0.6Q632.12 0.6 628.97-2.1L628.97-2.1 627.37 0 625.12 0 625.12-31.7 630.17-32.35 630.17-23.1Q633.02-24.6 635.92-24.6L635.92-24.6ZM634.72-2.25Q637.82-2.25 639.17-4.83 640.52-7.4 640.52-12L640.52-12Q640.52-16.85 639.15-19.48 637.77-22.1 634.67-22.1L634.67-22.1Q632.17-22.1 630.17-20.95L630.17-20.95 630.17-3.8Q632.07-2.25 634.72-2.25L634.72-2.25ZM670.72-11.7L655.22-11.7 655.22-11.6Q655.22-6.3 656.49-4.1 657.77-1.9 660.87-1.9L660.87-1.9Q665.97-1.9 666.22-7.15L666.22-7.15 670.37-6.95Q670.02-3.45 667.82-1.43 665.62 0.6 660.72 0.6L660.72 0.6Q655.07 0.6 652.62-2.53 650.17-5.65 650.17-12L650.17-12Q650.17-17.7 652.49-21.15 654.82-24.6 660.67-24.6L660.67-24.6Q666.32-24.6 668.52-21.18 670.72-17.75 670.72-12.2L670.72-12.2 670.72-11.7ZM660.57-22.1Q657.92-22.1 656.72-20.15 655.52-18.2 655.27-14.2L655.27-14.2 665.82-14.2Q665.67-18.1 664.49-20.1 663.32-22.1 660.57-22.1L660.57-22.1ZM689.01 0.35Q687.86 0.35 687.01-0.55 686.16-1.45 686.16-2.6L686.16-2.6Q686.16-3.8 687.01-4.65 687.86-5.5 689.01-5.5L689.01-5.5Q690.26-5.5 691.11-4.65 691.96-3.8 691.96-2.6L691.96-2.6Q691.96-1.4 691.11-0.53 690.26 0.35 689.01 0.35L689.01 0.35Z" opacity="1" transform="matrix(1,0,0,1,0,0)" fill="#0099ff" class="slogan-text-1" data-fill-palette-color="secondary" id="text-1"></path></svg></g></svg></g></svg></g></svg></g></svg></g><defs></defs></svg><rect width="325.62873359174637" height="96.64091565298838" fill="none" stroke="none" visibility="hidden"></rect></g></svg></g></svg>